<?xml version="1.0" encoding="utf-8"?>
<!-- Generator: Adobe Illustrator 24.1.1, SVG Export Plug-In . SVG Version: 6.00 Build 0)  -->
<svg version="1.1" id="圖層_1" xmlns="http://www.w3.org/2000/svg" xmlns:xlink="http://www.w3.org/1999/xlink" x="0px" y="0px"
	 viewBox="0 0 286.57 271.39" style="enable-background:new 0 0 286.57 271.39;" xml:space="preserve">
<style type="text/css">
	.st0{fill:#FAC046;}
	.st1{font-family:'BankGothicBT-Medium';}
	.st2{font-size:50.6741px;}
	.st3{font-family:'Jxixinkai';}
	.st4{font-size:28.1747px;}
	.st5{fill:none;stroke:#000000;stroke-miterlimit:10;}
	.st6{fill:#FFFFFF;stroke:#000000;stroke-linecap:round;stroke-linejoin:round;stroke-miterlimit:10;}
</style>
<g>
	<g>
		<path d="M-805.33-10.94c45.25-39.63,90.17-78.98,135.24-118.45c44.28,39.55,88.45,79,133.14,118.92
			c-4.52,0.21-7.97,0.65-11.42-2.43c-25.69-22.88-51.58-45.54-77.41-68.27c-14.16-12.46-28.33-24.9-42.5-37.34
			c-0.59-0.52-1.22-0.98-1.96-1.58c-6.49,5.63-12.9,11.19-19.3,16.74c-33.42,28.98-66.85,57.95-100.27,86.93
			c-0.74,0.64-1.6,1.2-2.19,1.97C-795.4-9.98-800.04-10.34-805.33-10.94z"/>
		<path d="M-536.89,85.44c1.88,0,3.28,0,4.8,0c0,18.87,0,37.62,0,56.56c-92.7,0-185.39,0-278.22,0c0-18.78,0-37.52,0-56.49
			c1.58,0,3.22,0,5.16,0c0,17.33,0,34.71,0,52.24c89.52,0,178.74,0,268.26,0C-536.89,120.39-536.89,103.01-536.89,85.44z"/>
		<path d="M-694.42-16.8c0-18.56,0-36.92,0-55.45c15.44,0,30.76,0,46.29,0c0,18.46,0,36.88,0,55.45
			C-663.51-16.8-678.84-16.8-694.42-16.8z M-669.25-42.39c0,6.96,0,13.63,0,20.45c5.37,0,10.65,0,15.9,0c0-6.92,0-13.65,0-20.45
			C-658.7-42.39-663.85-42.39-669.25-42.39z M-689.35-21.91c5.46,0,10.59,0,15.82,0c0-6.9,0-13.62,0-20.34c-5.38,0-10.57,0-15.82,0
			C-689.35-35.36-689.35-28.7-689.35-21.91z M-653.41-46.78c0-6.98,0-13.63,0-20.25c-5.39,0-10.54,0-15.76,0c0,6.85,0,13.57,0,20.25
			C-663.78-46.78-658.63-46.78-653.41-46.78z M-689.35-46.83c5.38,0,10.49,0,15.62,0c0-6.83,0-13.46,0-20.15
			c-5.28,0-10.39,0-15.62,0C-689.35-60.23-689.35-53.65-689.35-46.83z"/>
	</g>
	<text transform="matrix(1 0 0 1 -820.2661 49.729)" class="st1 st2">HOME &amp; U</text>
	<text transform="matrix(1 0 0 1 -745.3451 119.7914)" class="st3 st4">REAL LIFE</text>
</g>
<g>
	<polygon class="st0" points="241.94,271.39 44.63,271.39 99.33,119.08 187.41,119.08 	"/>
	<g>
		<g>
			<path d="M9.15,118.45C54.4,78.82,99.32,39.47,144.39,0c44.28,39.55,88.45,79,133.14,118.92c-4.52,0.21-7.97,0.65-11.42-2.43
				c-25.69-22.88-51.58-45.54-77.41-68.27c-14.16-12.46-28.33-24.9-42.5-37.34c-0.59-0.52-1.22-0.98-1.96-1.58
				c-6.49,5.63-12.9,11.19-19.3,16.74C91.51,55.04,58.09,84.02,24.66,112.99c-0.74,0.64-1.6,1.2-2.19,1.97
				C19.09,119.41,14.44,119.05,9.15,118.45z"/>
			<path d="M277.59,214.82c1.88,0,3.28,0,4.8,0c0,18.87,0,37.62,0,56.56c-92.7,0-185.39,0-278.22,0c0-18.78,0-37.52,0-56.49
				c1.58,0,3.22,0,5.16,0c0,17.33,0,34.71,0,52.24c89.52,0,178.74,0,268.26,0C277.59,249.78,277.59,232.4,277.59,214.82z"/>
		</g>
		<text transform="matrix(1 0 0 1 -5.7823 187.2455)" class="st1 st2">HOME &amp; U</text>
		<text transform="matrix(1 0 0 1 69.1387 254.5984)" class="st3 st4">REAL LIFE</text>
	</g>
	<line class="st5" x1="143.28" y1="9.32" x2="143.28" y2="99.32"/>
	<polygon class="st6" points="143.28,99.32 99.98,119.08 186.58,119.08 	"/>
</g>
</svg>
